# xmcd CD database file
#
# Track frame offsets:
#	150
#	12866
#	32828
#	75757
#	94777
#	108319
#	121872
#	136067
#	150564
#	172388
#	187292
#	203147
#	218105
#	231231
#	244296
#	258447
#	274404
#	289034
#	303093
#
# Disc length: 4257 seconds
#
# Revision: 0
# Processed by: cddbd v1.5.2PL0 Copyright (c) Steve Scherf et al.
# Submitted via: CDex 1.70beta2
#
DISCID=09109f13
DTITLE=Roy Eldridge - Jazz Roads CD112 - Swing - Vol.4 (1947-50)
DYEAR=2006
DGENRE=Jazz
TTITLE0=Wnew 'Saturday Night Swing Session'  - Honeysuckle Rose
TTITLE1=Wnew 'Saturday Night Swing Session'  - Lover
TTITLE2=Wnew 'Saturday Night Swing Session'  - Flip And Jazz
TTITLE3=Wnew 'Saturday Night Swing Session'  - How High The Moon
TTITLE4='King David' And His Little Jazz - King David
TTITLE5='King David' And His Little Jazz - It Don't Mean A Thing
TTITLE6='King David' And His Little Jazz - Wrap Your Troubles In Dreams
TTITLE7='King David' And His Little Jazz - Wrap Your Troubles In Dreams
TTITLE8='King David' And His Little Jazz - Undecided
TTITLE9='King David' And His Little Jazz - Ain't No Flies On Me
TTITLE10='King David' And His Little Jazz - The Man I Love
TTITLE11='King David' And His Little Jazz - The Man I Love
TTITLE12='King David' And His Little Jazz - Easter Parade
TTITLE13='King David' And His Little Jazz - Easter Parade
TTITLE14='King David' And His Little Jazz - Wild Driver
TTITLE15='King David' And His Little Jazz - If I Had You
TTITLE16='King David' And His Little Jazz - Nuts
TTITLE17='King David' And His Little Jazz - Someone To Watch Over Me
TTITLE18='King David' And His Little Jazz - Goliath Bounce
EXTD=YEAR: 2006
EXTT0=
EXTT1=
EXTT2=
EXTT3=
EXTT4=
EXTT5=
EXTT6=
EXTT7=
EXTT8=
EXTT9=
EXTT10=
EXTT11=
EXTT12=
EXTT13=
EXTT14=
EXTT15=
EXTT16=
EXTT17=
EXTT18=
PLAYORDER=
